<?xml version="1.0" ?><!DOCTYPE svg  PUBLIC '-//W3C//DTD SVG 1.1//EN'  'http://www.w3.org/Graphics/SVG/1.1/DTD/svg11.dtd'><svg height="40px" id="el_x5F_food_x5F_1" style="enable-background:new 0 0 40 40;" version="1.1" viewBox="0 0 40 40" width="40px" xml:space="preserve" xmlns="http://www.w3.org/2000/svg" xmlns:xlink="http://www.w3.org/1999/xlink"><path d="M19.734,4.491c2.045,0,3.992,0.421,5.759,1.18  c0.41,1.88,1.38,3.772,2.303,5.441c-2.857,0.305-5.451,1.549-6.549,4.358c-1.382-1.537-3.509-2.228-5.54-2.024  c0.729-2.619,0.605-5.763-0.921-8.095C16.331,4.795,17.998,4.491,19.734,4.491L19.734,4.491z M6.242,20.615  C8.241,15.617,10.24,4.623,5.964,8.871c-2.623,2.605-3.528,6.64-3.528,10.622c0,2.391,0.475,4.672,1.333,6.754  c1.033,0.926,6.032,4.924,8.748,4.939c-0.338-4.682,2.203-7.197,7.239-7.463c-1.375-1.315-3.565-1.939-5.956,0.45  C14.141,19.67,10.076,17.122,6.242,20.615L6.242,20.615z M30.796,25.174c0.874,2.92-18.995-5.998-16.996,6.997  c-2.87,0.956-6.998-2-9.464-4.132c-1.538-1.328-2.401-1.708-1.298,0.376c1.685,3.182,4.324,5.905,7.765,7.687  c8.988,4.654,20.053,1.141,24.708-7.846c1.891-3.651,2.434-7.646,1.81-11.411C36.407,11.34,26.797,19.176,30.796,25.174  L30.796,25.174z M21.798,19.176c-2.277,0-3.102,1.038-3.122,2.51c1.044,0.388,1.951,1.129,2.607,2.021  c2.662,0.066,5.253,0.654,7.897,0.909c-1.677-3.981,1.369-10.202,5.854-10.769c-0.184-0.572-0.398-1.141-0.647-1.703  c-1.52-3.419-4.051-6.076-7.081-7.773c-2.077-1.163,0.49,4.809,2.49,7.808C25.798,12.179,21.798,13.178,21.798,19.176L21.798,19.176  z M8.336,6.903c2.84,1.321,0.376,9.773-0.019,11.16c0.201-0.061,0.401-0.11,0.6-0.148c2.847-0.537,5.242,1.412,5.874,4.068  c0.843-0.44,1.791-0.659,2.733-0.566v-0.001l0.001-0.012v-0.001l0.001-0.012V21.39l0.001-0.011v-0.002l0.001-0.012v-0.001  l0.001-0.011v-0.002l0.001-0.012v-0.001l0.002-0.012v-0.001v-0.012v-0.002l0.001-0.011v-0.001l0.002-0.012v-0.001l0.001-0.012  v-0.001l0.001-0.012v-0.002l0.002-0.011V21.25l0.001-0.012v-0.001l0.001-0.013v-0.001l0.001-0.012v-0.001l0.002-0.012v-0.001  l0.002-0.012v-0.001l0.001-0.011v-0.002l0.002-0.011v-0.001l0.002-0.012v-0.001l0.001-0.012v-0.001l0.001-0.012v-0.001l0.002-0.012  V21.11l0.002-0.012v-0.001l0.002-0.012v-0.001l0.002-0.012v-0.001l0.001-0.012V21.06c0.278-1.643,1.565-2.704,3.114-2.961  c0.036-0.438,0.093-0.851,0.171-1.238c-1.435-2.264-4.611-2.9-7.047-1.683c2.999-5.998-0.416-11.736-2.661-10.389  C10.138,5.39,9.198,6.098,8.336,6.903z" style="fill-rule:evenodd;clip-rule:evenodd;fill:#231F20;"/></svg>